<svg width="47" height="47" viewBox="0 0 47 47" fill="none" xmlns="http://www.w3.org/2000/svg">
<path d="M1.67608 41.7884C0.69977 42.7647 0.69977 44.3476 1.67608 45.3239C2.65239 46.3002 4.2353 46.3002 5.21161 45.3239L1.67608 41.7884ZM46.0562 3.44381C46.0562 2.0631 44.9369 0.943812 43.5562 0.943812L21.0562 0.943812C19.6755 0.943812 18.5562 2.0631 18.5562 3.44381C18.5562 4.82452 19.6755 5.94381 21.0562 5.94381H41.0562V25.9438C41.0562 27.3245 42.1755 28.4438 43.5562 28.4438C44.9369 28.4438 46.0562 27.3245 46.0562 25.9438L46.0562 3.44381ZM5.21161 45.3239L45.324 5.21158L41.7884 1.67604L1.67608 41.7884L5.21161 45.3239Z" fill="black"/>
</svg>
