<svg width="260" height="259" viewBox="0 0 260 259" fill="none" xmlns="http://www.w3.org/2000/svg">
<path d="M81.5675 206.533C80.7031 205.989 79.848 205.536 79.0022 205.174C78.9144 205.043 78.917 204.903 79.0099 204.753C79.2734 204.539 79.5639 204.267 79.8814 203.937L82.7783 205.76C83.6427 206.304 84.4977 206.756 85.3436 207.118C85.4313 207.249 85.4288 207.39 85.3358 207.54C85.0724 207.753 84.7819 208.025 84.4644 208.356L81.5675 206.533Z" fill="black"/>
<path d="M51.8225 154.335L52.8857 158.284L53.2436 159.498C53.7658 161.271 54.2028 162.526 54.5546 163.265C54.4855 163.372 54.367 163.453 54.199 163.508L54.009 163.545C53.5917 162.811 53.1561 162.384 52.7023 162.266C52.3384 162.167 51.9184 162.163 51.4423 162.252C49.9988 162.526 48.0784 163.057 45.6811 163.845C40.6575 165.497 38.1404 166.476 38.1298 166.781C38.139 167.096 38.2494 167.613 38.461 168.331C38.3631 168.397 38.2455 168.452 38.1081 168.497C37.9706 168.542 37.8516 168.565 37.751 168.564L36.7932 165.058L36.0166 162.423L34.2625 157.067C34.186 156.807 34.2317 156.65 34.3996 156.595C34.4149 156.59 34.6049 156.552 34.9696 156.483C35.9613 156.324 37.054 156.082 38.2478 155.757C38.3934 155.91 38.4888 156.063 38.5338 156.216C38.5743 156.353 38.582 156.493 38.557 156.635C37.2215 157.276 36.3993 157.697 36.0904 157.899C36.1794 159.395 36.3883 160.7 36.7169 161.815C37.0411 162.916 37.2967 163.669 37.4839 164.077C38.5151 163.939 40.718 163.315 44.0926 162.206C44.0816 161.941 43.9208 161.282 43.6101 160.228C43.2995 159.173 43.0371 158.397 42.8229 157.897C42.6088 157.398 42.3763 157.064 42.1256 156.895C41.8703 156.711 41.4422 156.65 40.8412 156.714C40.7466 156.393 40.7227 156.141 40.7693 155.958C41.6846 155.825 42.3485 155.69 42.7607 155.555L44.7399 154.854C44.8477 154.936 44.9264 155.06 44.9759 155.229L45.0247 155.564L43.5873 156.314C43.693 157.184 43.9079 158.169 44.2321 159.269C44.5562 160.369 44.8533 161.235 45.1232 161.867L49.223 160.519C50.6584 160.047 51.6526 159.67 52.2059 159.387C52.1274 158.893 51.9981 158.341 51.818 157.73C51.3543 156.156 50.6889 154.666 49.8219 153.258C49.3879 153.149 48.8493 153.083 48.206 153.06C47.5475 153.042 47.1603 153.036 47.0444 153.04C47.0021 152.953 46.9584 152.834 46.9134 152.681C46.8684 152.528 46.8876 152.338 46.971 152.109C48.1226 151.982 49.2945 151.781 50.4865 151.506C50.6742 151.461 50.8027 151.528 50.872 151.706C51.177 152.343 51.4938 153.219 51.8225 154.335Z" fill="black"/>
<path d="M31.5027 142.274L31.4181 138.494C31.4189 138.255 32.0141 137.692 33.2037 136.804C34.0398 136.164 35.1407 135.446 36.5065 134.651C37.8564 133.84 38.6759 133.344 38.9652 133.162L37.8371 132.277C37.7091 132.184 37.4691 131.998 37.117 131.718C36.749 131.423 36.501 131.229 36.373 131.136C36.245 131.027 36.029 130.864 35.7249 130.647C35.4208 130.414 35.1808 130.244 35.0047 130.136C34.8126 130.012 34.5724 129.866 34.2842 129.697C33.7238 129.374 33.1473 129.083 32.5546 128.824C32.5201 129.607 32.5018 130.349 32.4996 131.051C32.3711 131.118 32.2347 131.153 32.0903 131.156C31.9459 131.159 31.8338 131.129 31.7537 131.067L31.7613 128.626C31.7647 127.509 31.7039 126.409 31.5789 125.327C31.6754 125.245 31.8039 125.202 31.9643 125.199L32.2289 125.217C32.4034 125.836 32.7944 126.465 33.402 127.107C34.0095 127.748 35.0093 128.636 36.4012 129.771L39.9052 132.616C41.0781 131.952 42.5244 131.076 44.244 129.986C46.8476 128.334 48.207 127.005 48.3224 125.997C48.3393 125.725 48.3488 125.246 48.3509 124.56C48.4633 124.51 48.5997 124.483 48.7601 124.48C48.9045 124.477 49.0167 124.49 49.0968 124.52C49.142 125.477 49.2276 126.336 49.3536 127.1C49.4956 127.847 49.5665 128.26 49.5663 128.34C49.5655 128.579 49.2193 129.017 48.5277 129.654C47.8361 130.276 46.8152 131.024 45.4652 131.898C44.0991 132.773 42.7653 133.592 41.4637 134.354L43.0961 135.563C45.2245 137.129 46.9456 138.185 48.2592 138.731C48.2936 137.949 48.3118 137.254 48.3137 136.648C48.4421 136.613 48.5865 136.594 48.7469 136.591C48.8913 136.588 48.9955 136.601 49.0596 136.632L49.0521 139.073C49.0492 139.999 49.1103 141.003 49.2353 142.085C49.0906 142.184 48.89 142.236 48.6333 142.242C48.5064 141.798 48.171 141.302 47.6274 140.755C47.0838 140.193 45.8519 139.142 43.9319 137.604L40.5238 134.876C38.9008 135.837 37.4787 136.689 36.2574 137.433C35.0361 138.177 34.1358 138.835 33.5566 139.406C32.9775 139.961 32.6233 140.391 32.494 140.697C32.3648 141.003 32.275 141.524 32.2246 142.259C32.1282 142.309 32.0078 142.335 31.8634 142.338C31.7191 142.341 31.5988 142.32 31.5027 142.274Z" fill="black"/>
<path d="M33.815 110.872L34.9722 107.411L35.8886 104.478C36.4709 102.615 37.3272 101.269 38.4574 100.441C39.5876 99.6131 41.0024 99.4566 42.7017 99.9716C44.3858 100.482 45.4774 101.44 45.9768 102.845C46.4762 104.251 46.4371 105.877 45.8595 107.726C45.6829 108.291 45.5416 108.716 45.4356 109.002C45.3199 109.05 45.1779 109.049 45.0094 108.998L44.586 108.744C44.6633 108.55 44.7951 108.156 44.9812 107.56C45.3631 106.338 45.3207 105.213 44.8541 104.185C44.377 103.138 43.5414 102.433 42.3472 102.071C41.1378 101.705 39.9898 101.758 38.9034 102.232C37.8064 102.685 37.0909 103.446 36.7568 104.516C36.4227 105.585 36.1979 106.411 36.0826 106.995C36.3142 107.165 36.8668 107.408 37.7405 107.723C38.6141 108.038 40.9876 108.782 44.8609 109.956L47.6855 110.812C48.9408 111.193 49.9862 111.468 50.8214 111.637C51.1376 110.947 51.489 109.983 51.8756 108.746C52.0478 108.732 52.2105 108.747 52.3636 108.794C52.5013 108.836 52.599 108.899 52.6564 108.983L51.3489 112.926C50.9862 114.087 50.7157 115.167 50.5375 116.166C50.4217 116.215 50.2797 116.213 50.1113 116.162L49.9347 116.084C49.9992 115.234 49.8783 114.629 49.5719 114.268C49.3277 113.977 48.9856 113.731 48.5454 113.531C47.2095 112.925 45.3551 112.263 42.9821 111.544C37.9147 110.008 35.2921 109.364 35.1143 109.611C34.947 109.878 34.7513 110.37 34.5269 111.088C34.4102 111.086 34.283 111.064 34.1452 111.023C34.0074 110.981 33.8974 110.931 33.815 110.872Z" fill="black"/>
<path d="M64.5246 84.2605L62.1896 87.6495L61.319 88.9781C60.3254 90.4946 59.6443 91.6506 59.2756 92.4461C59.152 92.4601 59.0173 92.4183 58.8713 92.3208L58.7253 92.1944C59.0233 91.3902 59.0769 90.7701 58.8859 90.3339C58.7348 89.9822 58.3186 89.5113 57.6372 88.9213C56.9513 88.3089 55.5337 87.2851 53.3844 85.8498L49.3644 83.1653C47.5467 81.9515 46.5741 81.4275 46.4466 81.5931C46.2397 81.8215 45.956 82.2108 45.5955 82.761C45.4762 82.7392 45.3569 82.6885 45.2375 82.6087C45.1181 82.529 45.0318 82.4424 44.9785 82.349L46.3045 80.4564C47.1134 79.2218 47.6847 78.2335 48.0182 77.4916C48.1771 77.482 48.3096 77.5126 48.4157 77.5835L48.5685 77.7434C48.3539 78.391 48.3022 78.8774 48.4134 79.2025C48.5114 79.5187 48.7529 79.8343 49.1378 80.1492C50.6641 81.3999 52.3826 82.6632 54.2931 83.939L58.0544 86.4508C59.3015 87.2836 60.2035 87.828 60.7604 88.0842C61.13 87.6365 61.5259 87.0906 61.948 86.4464C62.8536 85.0642 63.5714 83.5757 64.1013 81.9811C63.9369 81.5626 63.6597 81.0978 63.2699 80.5867C62.8755 80.0533 62.6385 79.731 62.5587 79.6199C62.5894 79.5439 62.6487 79.4388 62.7367 79.3046C62.8246 79.1704 62.981 79.0627 63.206 78.9814C63.4494 79.2211 63.976 79.6982 64.7858 80.4126C65.5956 81.1269 66.0049 81.5064 66.0139 81.551C66.0322 81.814 65.5358 82.7172 64.5246 84.2605Z" fill="black"/>
<path d="M79.7617 56.2954C80.4638 57.1613 80.9884 58.0633 81.3354 59.0014C81.6847 59.9168 81.8663 60.7658 81.8803 61.5484C81.8965 62.3082 81.8164 63.0768 81.64 63.8542C81.4536 64.6192 81.2203 65.2882 80.9402 65.8612C80.6623 66.4114 80.3532 66.9358 80.0129 67.4346C79.5147 68.1723 79.1004 68.6818 78.7699 68.9631C76.983 70.4842 74.9176 71.1133 72.5737 70.8505C70.2198 70.5754 68.2403 69.4482 66.6354 67.4691C65.9333 66.6033 65.4076 65.7127 65.0584 64.7973C64.7113 63.8591 64.5247 63.004 64.4985 62.2318C64.4845 61.4492 64.5707 60.6754 64.7571 59.9104C64.9335 59.133 65.1618 58.4578 65.4419 57.8848C65.722 57.3119 66.0261 56.7812 66.3541 56.2929C66.8401 55.5656 67.2605 55.0509 67.6155 54.7487C69.3901 53.2381 71.4644 52.6327 73.8384 52.9326C76.2024 53.2201 78.1768 54.3411 79.7617 56.2954ZM78.5566 67.5138C79.9396 66.3366 80.6049 64.9758 80.5524 63.4314C80.5022 61.8643 79.8752 60.3386 78.6715 58.8542C77.7387 57.7039 76.6329 56.774 75.3541 56.0644C74.0876 55.3445 72.7707 54.9705 71.4034 54.9427C70.0261 54.9025 68.8418 55.3043 67.8504 56.1482C66.4674 57.3255 65.7988 58.7204 65.8447 60.3331C65.8927 61.9231 66.4985 63.4354 67.6621 64.8703C68.5949 66.0206 69.7058 66.9568 70.9946 67.6787C72.2856 68.3778 73.6208 68.7361 75.0003 68.7535C76.3798 68.771 77.5653 68.3577 78.5566 67.5138Z" fill="black"/>
<path d="M86.4354 42.0082L89.8359 40.6433L92.4778 39.5225C94.1502 38.8129 95.6086 38.6178 96.8529 38.937C98.0914 39.2414 99.0044 40.1507 99.592 41.6648C100.036 42.8079 100.098 43.8793 99.7791 44.8789C99.4694 45.8575 98.8541 46.715 97.9332 47.4515C98.8026 48.1372 99.8468 48.8958 101.066 49.7272C102.299 50.5523 103.26 51.139 103.946 51.4873C104.642 51.8145 105.164 51.9387 105.513 51.8599C105.856 51.7663 106.368 51.5751 107.049 51.2862C107.124 51.3924 107.185 51.5049 107.231 51.6237C107.272 51.7276 107.3 51.8452 107.317 51.9765C106.259 52.4943 105.444 52.9264 104.872 53.273C104.32 53.628 103.985 53.8307 103.867 53.8809C103.763 53.9249 103.469 53.8335 102.985 53.6068C102.509 53.359 101.92 52.9953 101.217 52.5156C100.508 52.0212 99.8561 51.5629 99.2615 51.141C98.6816 50.7127 98.0183 50.2248 97.2714 49.6772C96.5336 49.1085 96.0813 48.7645 95.9143 48.6452C94.9671 49.0471 94.2229 49.3282 93.6819 49.4886L94.9693 52.8064C95.3149 53.6971 95.7469 54.6549 96.2652 55.6798C96.7644 55.589 97.4358 55.3647 98.2794 55.0067C98.3699 55.1067 98.4439 55.2309 98.5015 55.3793C98.5534 55.5129 98.5686 55.6188 98.5472 55.697L95.5686 56.883C94.4438 57.3602 93.4382 57.856 92.5519 58.3703C92.4433 58.3127 92.3573 58.2022 92.294 58.0389L92.247 57.8513C92.9475 57.3467 93.3442 56.8586 93.437 56.387C93.5142 56.0084 93.496 55.5839 93.3824 55.1135C93.0358 53.6872 92.4161 51.8237 91.5232 49.5227C89.6165 44.6091 88.5127 42.1642 88.2118 42.1882C87.9017 42.2333 87.3989 42.4034 86.7033 42.6985C86.6038 42.6197 86.5367 42.5358 86.5022 42.4467C86.4676 42.3577 86.4454 42.2115 86.4354 42.0082ZM97.7556 42.7292C97.3293 41.6307 96.6556 40.8274 95.7344 40.3192C94.8281 39.8047 93.8643 39.7641 92.8431 40.1974C91.8218 40.6306 91.1229 40.9617 90.7464 41.1907C90.837 41.9129 91.7118 44.4117 93.3708 48.687C93.9209 48.5055 94.6696 48.2138 95.6168 47.8119C96.564 47.41 97.2587 46.7349 97.7009 45.7866C98.1579 44.832 98.1761 43.8129 97.7556 42.7292Z" fill="black"/>
<path d="M124.257 48.8426L120.158 49.2154L118.889 49.3604C117.039 49.5721 115.712 49.7881 114.91 50.0082C114.822 49.922 114.77 49.7916 114.755 49.6168L114.763 49.4234C115.576 49.1379 116.093 48.7819 116.313 48.3556C116.493 48.0141 116.595 47.6014 116.617 47.1175C116.683 45.6499 116.609 43.669 116.393 41.1747C115.941 35.9479 115.567 33.3033 115.272 33.2408C114.962 33.196 114.432 33.2165 113.682 33.3023C113.641 33.1948 113.614 33.0695 113.601 32.9265C113.589 32.7835 113.594 32.6625 113.618 32.5636L117.261 32.219L120.013 31.9041L125.646 31.0913C125.917 31.0603 126.06 31.1321 126.075 31.3069C126.076 31.3228 126.069 31.5162 126.053 31.887C125.978 32.8903 125.962 34.0072 126.004 35.2378C125.821 35.355 125.65 35.4227 125.49 35.441C125.347 35.4574 125.208 35.4412 125.075 35.3922C124.759 33.9684 124.537 33.0872 124.412 32.7486C122.931 32.5811 121.609 32.5639 120.444 32.6972C119.296 32.8286 118.501 32.9516 118.06 33.0662C117.956 34.1049 118.056 36.3797 118.36 39.8907C118.621 39.9251 119.301 39.8793 120.402 39.7534C121.503 39.6275 122.322 39.5017 122.858 39.3761C123.395 39.2505 123.775 39.0787 123.998 38.8607C124.237 38.6408 124.394 38.2297 124.471 37.6273C124.806 37.589 125.058 37.6083 125.225 37.6854C125.144 38.6092 125.122 39.2856 125.159 39.7145L125.386 41.7823C125.282 41.8745 125.141 41.9307 124.966 41.9507L124.627 41.9414L124.228 40.3987C123.354 40.3543 122.343 40.3977 121.194 40.5291C120.046 40.6605 119.132 40.8052 118.453 40.9631L118.822 45.2288C118.951 46.7221 119.09 47.7652 119.238 48.3579C119.738 48.3649 120.307 48.3319 120.945 48.2589C122.588 48.0709 124.196 47.6703 125.77 47.057C125.977 46.6484 126.165 46.1294 126.336 45.5002C126.506 44.855 126.602 44.475 126.624 44.3602C126.719 44.3333 126.846 44.3108 127.005 44.2925C127.165 44.2743 127.346 44.3257 127.55 44.4468C127.408 45.6021 127.334 46.7899 127.327 48.0101C127.327 48.2025 127.233 48.3177 127.043 48.3555C126.35 48.547 125.422 48.7093 124.257 48.8426Z" fill="black"/>
<path d="M168.841 50.5187C169.762 50.963 170.663 51.3181 171.546 51.5839C171.648 51.7042 171.66 51.8437 171.584 52.0025C171.344 52.2426 171.083 52.5439 170.802 52.9064L167.716 51.4172C166.796 50.9729 165.894 50.6178 165.011 50.352C164.91 50.2317 164.897 50.0922 164.974 49.9334C165.214 49.6933 165.474 49.392 165.755 49.0295L168.841 50.5187Z" fill="black"/>
<path d="M208.535 69.9783L210.35 73.1253L211.929 75.7424C212.932 77.4054 213.37 78.9401 213.243 80.3464C213.116 81.7527 212.301 82.9384 210.8 83.9035C209.312 84.8599 207.881 85.0704 206.507 84.535C205.133 83.9996 203.948 82.9072 202.952 81.2578C202.648 80.7535 202.424 80.3675 202.282 80.0998C202.322 79.9795 202.416 79.8715 202.565 79.7758L203.032 79.6172C203.126 79.8031 203.333 80.1619 203.654 80.6935C204.312 81.784 205.177 82.4861 206.248 82.7999C207.342 83.1186 208.416 82.9389 209.471 82.2607C210.539 81.5738 211.255 80.6598 211.617 79.5186C212.001 78.3823 211.906 77.3371 211.33 76.3829C210.754 75.4288 210.287 74.7169 209.928 74.2473C209.649 74.3134 209.105 74.5781 208.296 75.0415C207.487 75.5049 205.371 76.8365 201.95 79.0362L199.454 80.6404C198.345 81.3534 197.453 81.9744 196.777 82.5033C197.083 83.1962 197.569 84.0946 198.235 85.1987C198.133 85.3402 198.014 85.4544 197.878 85.5414C197.757 85.6196 197.646 85.6532 197.545 85.6422L195.471 82.0658C194.846 81.0298 194.22 80.1173 193.594 79.3281C193.634 79.2078 193.728 79.0998 193.877 79.0041L194.052 78.9202C194.642 79.5247 195.172 79.8273 195.641 79.828C196.019 79.8313 196.427 79.7298 196.866 79.5235C198.195 78.8959 199.908 77.9082 202.004 76.5605C206.481 73.6826 208.686 72.0948 208.619 71.7973C208.53 71.4948 208.293 71.0233 207.906 70.3826C207.984 70.2945 208.084 70.2113 208.206 70.133C208.328 70.0548 208.437 70.0032 208.535 69.9783Z" fill="black"/>
<path d="M222.17 96.777L222.97 100.323L223.65 103.084C224.08 104.832 224.04 106.315 223.53 107.532C223.034 108.745 221.997 109.572 220.418 110.013C219.227 110.346 218.166 110.303 217.235 109.885C216.325 109.478 215.581 108.776 215.005 107.78C214.194 108.585 213.284 109.558 212.275 110.7C211.269 111.857 210.541 112.763 210.09 113.418C209.659 114.084 209.454 114.596 209.476 114.953C209.514 115.306 209.62 115.839 209.795 116.55C209.679 116.616 209.559 116.666 209.435 116.701C209.327 116.731 209.207 116.748 209.075 116.751C208.735 115.639 208.441 114.779 208.192 114.171C207.931 113.583 207.785 113.226 207.755 113.103C207.728 112.994 207.864 112.708 208.164 112.245C208.482 111.792 208.933 111.236 209.515 110.578C210.113 109.915 210.666 109.306 211.174 108.75C211.686 108.211 212.27 107.593 212.926 106.897C213.601 106.213 214.01 105.793 214.154 105.637C213.91 104.647 213.752 103.873 213.681 103.314L210.222 104.28C209.293 104.539 208.285 104.879 207.197 105.298C207.207 105.808 207.32 106.504 207.537 107.385C207.425 107.466 207.291 107.528 207.137 107.572C206.997 107.61 206.891 107.615 206.818 107.586L206.127 104.481C205.837 103.305 205.511 102.247 205.147 101.308C205.221 101.204 205.343 101.129 205.513 101.081L205.704 101.053C206.088 101.805 206.504 102.251 206.952 102.391C207.311 102.505 207.73 102.529 208.21 102.461C209.664 102.253 211.591 101.814 213.99 101.144C219.114 99.7137 221.687 98.8462 221.712 98.5418C221.717 98.2263 221.63 97.705 221.451 96.978C221.544 96.8859 221.637 96.8269 221.73 96.8009C221.822 96.775 221.969 96.767 222.17 96.777ZM219.666 108.066C220.811 107.746 221.706 107.149 222.351 106.274C223 105.415 223.193 104.452 222.93 103.385C222.667 102.317 222.453 101.584 222.288 101.183C221.565 101.203 218.975 101.836 214.517 103.08C214.608 103.65 214.775 104.43 215.019 105.42C215.263 106.41 215.815 107.174 216.675 107.71C217.539 108.263 218.536 108.381 219.666 108.066Z" fill="black"/>
<path d="M220.134 139.241L219.054 139.198C217.771 139.148 216.631 138.942 215.634 138.583C214.636 138.224 213.8 137.73 213.125 137.103C212.45 136.475 211.951 135.734 211.627 134.879C211.303 134.031 211.173 133.09 211.237 132.055C211.299 131.052 211.544 130.137 211.971 129.312C212.398 128.494 212.987 127.792 213.737 127.206C214.486 126.627 215.38 126.19 216.417 125.896C217.455 125.602 218.616 125.48 219.899 125.531L220.979 125.574C222.262 125.625 223.398 125.834 224.387 126.201C225.383 126.576 226.219 127.081 226.893 127.716C227.576 128.352 228.079 129.093 228.403 129.94C228.727 130.796 228.857 131.725 228.795 132.729C228.731 133.764 228.486 134.69 228.059 135.508C227.632 136.333 227.039 137.031 226.283 137.602C225.533 138.18 224.64 138.609 223.603 138.888C222.574 139.174 221.417 139.292 220.134 139.241ZM219.192 136.969L220.295 137.013C221.312 137.053 222.219 136.984 223.014 136.805C223.809 136.634 224.485 136.36 225.041 135.985C225.598 135.609 226.031 135.139 226.34 134.574C226.649 134.017 226.826 133.376 226.871 132.653C226.914 131.952 226.816 131.313 226.577 130.734C226.338 130.163 225.965 129.664 225.458 129.239C224.951 128.821 224.312 128.487 223.543 128.238C222.774 127.989 221.881 127.845 220.864 127.804L219.761 127.761C218.736 127.72 217.822 127.793 217.018 127.979C216.222 128.166 215.542 128.451 214.977 128.834C214.42 129.226 213.987 129.696 213.678 130.245C213.369 130.802 213.193 131.431 213.15 132.131C213.105 132.863 213.201 133.518 213.44 134.097C213.679 134.676 214.052 135.17 214.56 135.58C215.076 135.999 215.718 136.324 216.488 136.558C217.266 136.791 218.167 136.929 219.192 136.969Z" fill="black"/>
<path d="M223.159 156.864L222.051 159.656C221.585 160.917 221.29 161.9 221.166 162.605C221.048 162.647 220.906 162.638 220.741 162.578L220.569 162.49C220.693 161.786 220.197 161.12 219.082 160.494C218.462 160.098 216.829 159.42 214.184 158.46L207.173 155.914C205.339 155.248 204.09 154.616 203.425 154.017C202.755 153.433 202.192 152.419 201.736 150.976L200.855 148.102C201.015 147.853 201.238 147.781 201.524 147.884L202.343 149.612C202.907 150.805 203.764 151.738 204.913 152.411C206.042 153.093 207.666 153.819 209.785 154.589L215.781 156.766C219.598 158.152 221.566 158.73 221.685 158.501C221.88 158.112 222.139 157.482 222.461 156.61C222.582 156.604 222.711 156.625 222.846 156.674C222.981 156.723 223.086 156.786 223.159 156.864Z" fill="black"/>
<path d="M192.417 179.706L194.899 176.422L195.645 175.387C196.732 173.876 197.464 172.75 197.84 172.01C197.964 172.002 198.096 172.05 198.237 172.154L198.377 172.287C198.044 173.078 197.962 173.696 198.133 174.141C198.268 174.499 198.509 174.847 198.857 175.183C199.912 176.2 201.448 177.452 203.463 178.938C207.686 182.052 209.92 183.52 210.166 183.342C210.408 183.142 210.75 182.736 211.191 182.123C211.299 182.164 211.411 182.226 211.527 182.312C211.642 182.397 211.729 182.481 211.788 182.564L209.592 185.491L207.974 187.738L204.79 192.448C204.63 192.67 204.48 192.728 204.339 192.624C204.326 192.615 204.186 192.482 203.919 192.225C203.217 191.508 202.39 190.759 201.44 189.978C201.475 189.765 201.54 189.593 201.633 189.463C201.718 189.346 201.823 189.254 201.95 189.188C203.23 189.893 204.04 190.31 204.378 190.44C205.501 189.454 206.405 188.485 207.089 187.534C207.765 186.596 208.208 185.926 208.419 185.523C207.71 184.761 205.937 183.334 203.1 181.243C202.899 181.413 202.475 181.948 201.828 182.847C201.181 183.746 200.724 184.435 200.456 184.916C200.189 185.397 200.062 185.792 200.075 186.101C200.079 186.423 200.281 186.811 200.681 187.265C200.484 187.539 200.3 187.712 200.129 187.786C199.491 187.116 198.999 186.653 198.653 186.398L196.949 185.202C196.951 185.063 197.003 184.922 197.106 184.779L197.342 184.534L198.767 185.256C199.389 184.638 200.038 183.86 200.713 182.922C201.388 181.984 201.895 181.211 202.234 180.604L198.788 178.063C197.581 177.173 196.706 176.588 196.162 176.306C195.82 176.672 195.461 177.116 195.086 177.637C194.12 178.978 193.337 180.435 192.737 182.006C192.904 182.428 193.166 182.91 193.522 183.452C193.892 184.004 194.112 184.326 194.183 184.418C194.14 184.506 194.071 184.615 193.977 184.745C193.884 184.875 193.723 184.976 193.495 185.047C192.724 184.18 191.884 183.341 190.974 182.53C190.829 182.404 190.807 182.258 190.906 182.092C191.229 181.452 191.733 180.657 192.417 179.706Z" fill="black"/>
<path d="M176.144 195.761C178.327 194.064 180.558 193.408 182.838 193.792C185.115 194.2 187.024 195.448 188.564 197.537C190.114 199.639 190.709 201.908 190.349 204.345C189.989 206.782 188.744 208.83 186.612 210.487C184.924 211.8 183.27 212.753 181.651 213.346C181.56 213.357 181.49 213.33 181.443 213.266C181.405 213.215 181.278 213.001 181.06 212.626C180.347 211.306 179.793 210.365 179.399 209.804C179.561 209.618 179.68 209.495 179.757 209.436C179.833 209.376 179.966 209.313 180.156 209.246C180.922 210.042 181.523 210.613 181.958 210.96C182.553 211.062 183.243 211.01 184.028 210.802C184.814 210.595 185.587 210.195 186.349 209.603C187.796 208.478 188.617 207.033 188.813 205.268C188.996 203.512 188.431 201.744 187.117 199.962C186.191 198.706 185.119 197.685 183.9 196.898C182.669 196.122 181.383 195.69 180.041 195.604C178.697 195.541 177.46 195.948 176.33 196.826C175.201 197.704 174.425 198.791 174.003 200.087C174.064 200.685 174.271 201.603 174.625 202.84C174.32 203.077 174.038 203.195 173.779 203.195C173.276 202.135 172.724 201.102 172.123 200.097C172.032 199.946 172.053 199.799 172.186 199.655C173.15 198.361 174.469 197.064 176.144 195.761Z" fill="black"/>
<path d="M152.878 208.884L156.598 207.546C158.221 206.929 159.545 206.357 160.57 205.831C160.677 205.893 160.758 206.006 160.815 206.172L160.855 206.361C159.875 206.921 159.265 207.392 159.022 207.774C158.785 208.17 158.718 208.69 158.82 209.332C158.994 210.526 159.533 212.433 160.437 215.052C161.341 217.671 162.002 219.489 162.42 220.505C162.839 221.521 163.137 222.14 163.316 222.361C163.717 222.294 164.189 222.157 164.73 221.951C165.992 221.471 166.919 220.931 167.511 220.332L167.645 217.47C167.991 217.339 168.267 217.302 168.474 217.36L169.321 220.997C169.378 221.163 169.279 221.294 169.024 221.391L165.002 222.742L159.48 224.842L155.207 226.646C154.937 226.749 154.773 226.717 154.716 226.552C154.499 225.135 154.201 223.878 153.822 222.779C153.922 222.673 154.061 222.586 154.242 222.517C154.422 222.449 154.575 222.424 154.701 222.445C155.486 223.832 155.917 224.588 155.993 224.712C156.859 224.757 157.945 224.532 159.253 224.034C159.839 223.811 160.299 223.594 160.634 223.381C160.632 223.229 160.476 222.581 160.167 221.439C159.843 220.302 159.38 218.86 158.777 217.114L157.383 213.072C156.806 211.401 156.185 209.994 155.518 208.851C154.791 209.008 153.991 209.253 153.12 209.584C153.033 209.481 152.964 209.354 152.912 209.203C152.865 209.068 152.854 208.961 152.878 208.884Z" fill="black"/>
<path d="M131.171 229.007C132.273 229.62 133.32 229.892 134.313 229.824C135.306 229.757 136.095 229.431 136.681 228.848C137.267 228.265 137.542 227.559 137.507 226.73C137.473 225.917 137.116 225.23 136.434 224.669C135.752 224.108 134.668 223.527 133.181 222.925C130.796 221.952 129.264 220.842 128.585 219.594C128.272 219.008 128.101 218.372 128.072 217.687C128.01 216.204 128.594 214.998 129.823 214.067C131.037 213.137 132.493 212.615 134.19 212.499C135.103 212.437 136.059 212.46 137.06 212.567C138.06 212.675 138.78 212.802 139.219 212.948C139.431 214.18 139.763 215.58 140.214 217.148C139.932 217.311 139.719 217.397 139.574 217.407C139.414 217.418 139.294 217.418 139.213 217.407C138.718 216.322 138.266 215.506 137.858 214.958C137.507 214.631 137.199 214.364 136.933 214.158C136.669 213.969 136.243 213.782 135.657 213.598C135.056 213.415 134.338 213.352 133.506 213.409C132.673 213.465 131.932 213.804 131.284 214.423C130.635 215.043 130.33 215.799 130.367 216.691C130.397 217.408 130.547 217.918 130.816 218.219C131.086 218.52 131.288 218.746 131.423 218.897C131.541 219.049 131.773 219.217 132.118 219.401C132.464 219.601 132.702 219.737 132.834 219.808C132.965 219.879 133.252 220.011 133.694 220.205C134.119 220.4 134.504 220.573 134.847 220.726C135.176 220.895 135.455 221.036 135.684 221.148C135.914 221.26 136.266 221.436 136.742 221.675C137.218 221.931 137.556 222.131 137.755 222.278C137.954 222.44 138.212 222.654 138.528 222.92C138.845 223.187 139.072 223.435 139.21 223.665C139.559 224.329 139.746 224.963 139.771 225.569C139.833 227.035 139.264 228.217 138.065 229.113C136.867 230.026 135.395 230.542 133.649 230.661C132.929 230.71 132.124 230.669 131.235 230.537C130.346 230.406 129.657 230.253 129.168 230.079C129.289 229.511 129.377 228.338 129.431 226.561C129.588 226.47 129.754 226.419 129.93 226.407C130.106 226.395 130.26 226.416 130.391 226.471C130.415 226.661 130.529 227.085 130.733 227.743C130.938 228.416 131.084 228.838 131.171 229.007Z" fill="black"/>
</svg>
